<?xml version="1.0" encoding="UTF-8"?><svg id="a" xmlns="http://www.w3.org/2000/svg" viewBox="0 0 181.18 181.18"><polygon points="132.67 145.99 158.49 100.58 107.53 100.59 107.53 145.99 132.67 145.99" style="fill:#f9c900;"/><path d="M86.55,113.73c7.94,7.9,17.39,12.14,28.19,13.14V35.92s-4.62,0-6.81,0c-8,1.91-15.15,5.87-21.37,12.09-9.07,9.08-13.63,20.04-13.63,32.89s4.56,23.78,13.63,32.84" style="fill:#e83fc8;"/><path d="M107.53,145.99l7.21,.05V35.14h-7.21l-40.89,72.37L25.28,35.92h-7.08l.27,.48v109.64h6.2V47.14l41.98,72.54L107.53,47.14v98.85Z" style="fill:#fff;"/><polygon points="114.75 92.79 153.3 92.78 153.3 87.44 114.75 87.47 114.75 41.38 162.98 41.38 162.98 35.14 107.53 35.14 107.53 146.04 162.98 146.04 162.98 140.66 114.75 140.63 114.75 92.79" style="fill:#fff;"/></svg>